# xmcd
#
# Track frame offsets:
#	150
#	16573
#	40869
#	56451
#	75811
#	92363
#	109832
#	127688
#	145912
#	166663
#	192674
#	215484
#	234596
#	251242
#	269139
#	285809
#
# Disc length: 4029 seconds
#
# Revision: 0
# Processed by: cddbd v1.5.2PL0 Copyright (c) Steve Scherf et al.
# Submitted via: audiograbber 1.83.01
#
DISCID=cb0fbb10
DTITLE=Sonic Seducer - Cold Hands Seduction Vol. 157 - 09-2014
DYEAR=2014
DGENRE=Gothic
TTITLE0=Letzte Instanz - Nein (Revolutionery Remix) [Exklusiv]
TTITLE1=KMFDM - Tohuvabohu (live)
TTITLE2=microClocks - Life Is Grim
TTITLE3=The Rorschach Garden - We're All Gonna Die 
TTITLE4=Substaat - Berlin
TTITLE5=Neopera - The Marvel Of Chimera
TTITLE6=Fimbulvet - Fesseln der Asche
TTITLE7=Andreas Gross - Holding Up the Halo
TTITLE8=Northern Sadness - Bleed
TTITLE9=Model Kaos - New Age
TTITLE10=Otto Dix - Cocoon
TTITLE11=Lost Elegy feat. Martin Bowes - Heavy Rain
TTITLE12=Eden weint im Grab - Der ewige Bergmann
TTITLE13=Tombstone - The Dark Abyss I Fear
TTITLE14=Hortus Animae - Doomsday (Heavy Radio Mix-Edit)
TTITLE15=Margin - Psychedelic Underground - The Short Trip
EXTD=
EXTT0=
EXTT1=
EXTT2=
EXTT3=
EXTT4=
EXTT5=
EXTT6=
EXTT7=
EXTT8=
EXTT9=
EXTT10=
EXTT11=
EXTT12=
EXTT13=
EXTT14=
EXTT15=
PLAYORDER=
